<?xml version="1.0" standalone="no"?>
<!DOCTYPE svg PUBLIC "-//W3C//DTD SVG 20010904//EN"
 "http://www.w3.org/TR/2001/REC-SVG-20010904/DTD/svg10.dtd">
<svg version="1.0" xmlns="http://www.w3.org/2000/svg"
 width="640.000000pt" height="640.000000pt" viewBox="0 0 640.000000 640.000000"
 preserveAspectRatio="xMidYMid meet">
<metadata>
Created by potrace 1.11, written by Peter Selinger 2001-2013
</metadata>
<g transform="translate(0.000000,640.000000) scale(0.100000,-0.100000)"
fill="#000000" stroke="none">
<path d="M3158 4725 c-2 -2 -39 -5 -83 -9 -93 -7 -110 -10 -225 -37 -77 -18
-138 -38 -225 -72 -109 -44 -274 -144 -376 -229 -67 -56 -209 -198 -209 -210
0 -4 -75 -7 -167 -8 -93 0 -199 -3 -238 -5 -156 -9 -262 -16 -300 -20 -22 -3
-61 -7 -87 -10 -52 -5 -175 -23 -223 -31 -16 -3 -43 -7 -60 -10 -16 -3 -79
-16 -140 -30 -418 -93 -691 -246 -786 -440 -68 -137 -42 -293 75 -451 248
-337 900 -687 1746 -937 85 -25 174 -50 198 -56 23 -6 58 -25 76 -43 188 -182
369 -294 596 -370 369 -123 759 -103 1106 58 l93 43 148 -6 c289 -12 788 -5
943 13 19 3 60 7 90 10 179 20 242 30 450 71 223 45 459 136 606 234 241 163
296 380 154 614 -115 190 -403 412 -780 601 -99 50 -354 164 -380 170 -8 2
-60 22 -115 44 -55 22 -173 64 -261 93 l-162 53 -28 65 c-92 213 -274 444
-459 585 -33 24 -64 48 -70 53 -23 18 -135 82 -200 115 -118 59 -304 118 -415
131 -123 15 -285 27 -292 21z m-1423 -1177 c-3 -7 -12 -53 -21 -103 -32 -181
-24 -411 20 -599 9 -38 15 -71 13 -73 -5 -4 -113 41 -232 97 -297 138 -447
311 -381 439 46 89 188 164 406 215 163 39 202 43 195 24z m3043 -364 c210
-92 375 -196 442 -279 119 -148 64 -269 -165 -364 -79 -33 -244 -78 -321 -87
-27 -3 -51 -7 -54 -9 -3 -2 -35 -6 -70 -10 -36 -3 -72 -8 -81 -11 -12 -3 -4
19 26 78 65 125 123 293 141 403 3 22 8 43 10 47 5 7 17 161 18 216 0 37 4 38
54 16z"/>
</g>
</svg>
